<svg xmlns="http://www.w3.org/2000/svg" viewBox="0 0 246.56 211.53"><defs><style>.a{fill:#050509;fill-rule:evenodd;}</style></defs><title>logomark</title><path class="a" d="M243.57,104.18,183.65,69.59c-12.36,11.64-30.78,36-33.71,62.29l-1,.12c1.73-18.06,6.88-56.74,21.2-70.23L64.52.8A6,6,0,0,0,56.33,3L.81,99.17A6,6,0,0,0,3,107.36l77.06,44.49c5.9-26.77,15.4-69.72,15.4-75.61,0-2.9-2-4.07-4.65-4.07-2.21,0-5.23,1.63-8,5.23l-1-.23c3.25-5.11,9.65-7.55,16.15-7.55,5.58,0,12,2.44,12,12.31,0,2.32-2,12.43-4.53,24.86C110.1,101.79,119,98,126.6,98c6.86,0,12.32,3.14,12.32,11.38,0,7.9-10.11,36.82-10.11,45.07,0,3.83,2,5.11,4.07,5.11,1.72,0,5-1.88,7.42-6.38a9.54,9.54,0,0,1-.47-3c0-5.11,3.25-10.69,9.53-10.69,4.42,0,7.44,4.3,7.44,8.71,0,5.23-3.6,10.34-9.06,10.34a7.67,7.67,0,0,1-7-4.33c-3.05,5.21-7.85,7.81-12.95,7.81-6.28,0-12.09-3.95-12.09-12.08,0-12.2,7.55-30.43,7.55-41.47,0-5-2.44-7-5.58-7-4.18,0-9.65,3.6-12.78,7.2-3.28,15.58-8.31,38.52-11.09,51.13l88.26,51a6,6,0,0,0,8.19-2.2l55.52-96.17A6,6,0,0,0,243.57,104.18Zm-42.8,1.33h-12.9c-4.53,20.33-10,45.19-10,49.83a3.76,3.76,0,0,0,4.07,3.95c3.49,0,10.58-4.3,11.62-16.15h1c-1.28,12.78-8,18.59-18.71,18.59-6.28,0-12.2-3.83-12.2-12,0-4.18,4.88-27.18,8.6-44.26h-7.79l.35-1.16h7.67L176,88.66a20.29,20.29,0,0,0,7.9,1.74A7.69,7.69,0,0,0,191.71,84l.93-4.07h.93c-.81,3.95-3,13.47-5.46,24.39h13Z"/></svg>