<?xml version="1.0" encoding="UTF-8"?>
<svg width="206px" height="181px" viewBox="0 0 206 181" version="1.1" xmlns="http://www.w3.org/2000/svg" xmlns:xlink="http://www.w3.org/1999/xlink">
    <!-- Generator: Sketch 48.2 (47327) - http://www.bohemiancoding.com/sketch -->
    <title>Logo</title>
    <desc>Created with Sketch.</desc>
    <defs>
        <path d="M95.2702695,123.037975 C87.0497589,97.0742307 73.7721566,55.0012122 70.826713,49.8995542 C69.3829111,47.3988161 67.1040871,47.3807687 64.8023238,48.7096924 C62.9008672,49.8074989 61.1074029,52.7101737 60.4958772,57.1977919 L59.4796831,57.5177465 C59.7410273,51.4991275 64.0321615,46.2201464 69.6364548,42.9845062 C74.4401347,40.2111003 81.1574335,39.1343595 86.066071,47.636369 C87.2211124,49.6369594 90.5437391,59.3220649 94.5220246,71.2960794 C96.1418287,64.625859 101.941413,56.8761683 108.446396,53.1205145 C114.35092,49.7115365 120.613829,49.696707 124.713937,56.7983031 C128.641078,63.6003107 134.314674,93.5344605 138.414783,100.636057 C140.32089,103.937531 142.657466,104.055608 144.458846,103.015581 C145.941087,102.159809 147.858707,98.8954052 147.677138,93.8314631 C146.960009,93.1958713 146.311965,92.4055114 145.764889,91.4579476 C143.223798,87.0566485 143.254134,80.6379114 148.658274,77.5178298 C152.461187,75.3222168 157.199718,77.5205475 159.394297,81.3216694 C161.99314,85.822998 161.431855,92.015455 156.728252,94.7310816 C154.128785,96.2318844 151.028306,96.1814955 148.532195,94.4954517 C148.493123,100.496977 145.652436,105.126621 141.267978,107.657989 C135.863838,110.778071 128.896434,110.266031 124.853789,103.263965 C118.79011,92.7613649 116.228307,73.3015759 110.74186,63.7987711 C108.258521,59.4975016 105.175125,59.0103647 102.473055,60.5704055 C98.8707958,62.6501711 95.9575068,68.4667129 95.0457511,73.127669 C100.018321,88.3215209 107.182192,110.880063 111.033783,123.037975 L95.2702695,123.037975 Z M127.992764,1.98951966e-13 L143.563261,1.98951966e-13 C138.654856,16.0866182 134.811018,46.5144114 145.404772,70.7270142 L144.561834,71.3470574 C137.025544,54.8405099 122.095833,18.6483512 127.992784,-4.71782832e-07 Z M144.56649,39.6019341 L151.171549,35.788501 L146.37732,20.5511365 C149.256103,20.222797 151.947204,19.3359528 154.048313,18.1228766 C156.950537,16.4472772 158.928727,13.1712054 157.577086,8.75004038 L156.356377,4.78677272 L157.15699,4.3245384 C158.420024,8.12999725 161.254237,17.4302247 164.581322,28.0463651 L175.789909,21.5750847 L176.066699,22.7490067 L164.95869,29.1622189 C171.162024,48.9202778 178.817364,73.0422226 181.127447,77.0434036 C182.686464,79.7437006 185.193128,79.2307534 186.593701,78.4221323 C189.596001,76.6887536 193.563562,69.4626244 188.573829,58.7400994 L189.474519,58.2200858 C194.726404,69.8589057 191.809561,78.2115807 182.603008,83.5269864 C177.198868,86.647068 170.188851,86.2923374 166.146495,79.2907708 C164.06742,75.6897079 156.83573,53.457132 151.548917,36.9043548 L144.84378,40.7755672 L144.56649,39.6019341 Z" id="path-1"></path>
    </defs>
    <g id="youtube-overlay" stroke="none" stroke-width="1" fill="none" fill-rule="evenodd">
        <g id="Logo" transform="translate(82.646750, 75.483025) rotate(-330.000000) translate(-82.646750, -75.483025) translate(-26.853250, 13.483025)">
            <rect id="Combined-Shape" fill="#2DB0EA" x="6.89226454e-13" y="-4.12114787e-13" width="218.734177" height="123.037975" rx="6"></rect>
            <mask id="mask-2" fill="white">
                <use xlink:href="#path-1"></use>
            </mask>
            <use id="Combined-Shape" fill="#FFFFFF" xlink:href="#path-1"></use>
        </g>
    </g>
</svg>